<svg width="400" height="400" viewBox="0 0 400 400" xmlns="http://www.w3.org/2000/svg">
  <rect width="400" height="400" fill="#111111"/>
  <g transform="translate(200,200)">
    <path d="M0,-70 L18,-18 L18,18 L0,70 L-18,18 L-18,-18 Z" fill="white"/>
    <path d="M-70,0 L-18,-18 L-18,18 L70,0 L18,18 L18,-18 Z" fill="white"/>
    <rect x="-16" y="-16" width="32" height="32" fill="#111111" transform="rotate(45)"/>
  </g>
  <path d="M108,60 L82,60 Q60,60 60,82 L60,318 Q60,340 82,340 L108,340" fill="none" stroke="white" stroke-width="22" stroke-linecap="round" stroke-linejoin="round"/>
  <path d="M292,60 L318,60 Q340,60 340,82 L340,318 Q340,340 318,340 L292,340" fill="none" stroke="white" stroke-width="22" stroke-linecap="round" stroke-linejoin="round"/>
</svg>
